<svg width="64" height="64" viewBox="0 0 64 64" fill="none" xmlns="http://www.w3.org/2000/svg">
  <rect width="64" height="64" fill="#050505"/>
  <rect x="6" y="6" width="52" height="52" stroke="#F4F4F1" stroke-width="2"/>
  <path d="M18 15H35.5C42.1 15 46 18.3 46 23.7C46 27.1 44.1 29.6 41.2 30.8C45 31.9 47.5 34.9 47.5 39C47.5 45 43.1 49 35.8 49H18V15ZM33.8 28.4C37 28.4 38.9 27 38.9 24.5C38.9 22 37 20.6 33.8 20.6H25.2V28.4H33.8ZM35 43.3C38.3 43.3 40.3 41.6 40.3 38.8C40.3 36 38.3 34.4 35 34.4H25.2V43.3H35Z" fill="#F4F4F1"/>
  <rect x="44" y="8" width="12" height="12" fill="#D7AD28"/>
</svg>
