<svg viewBox="0 0 946.88 226.34" xmlns="http://www.w3.org/2000/svg" xmlns:xlink="http://www.w3.org/1999/xlink" id="Layer_2" overflow="hidden"><style>
.MsftOfcThm_Background1_Fill_v2 {
 fill:#FFFFFF; 
}
</style>
<g id="Layer_1-2"><path d="M790.92 224.12 847.66 224.12 845.76 106.51 883.48 224.12 946.88 224.12 946.88 2.22 889.82 2.22 892.04 114.12 855.9 2.22 790.91 2.22 790.91 224.12 790.92 224.12ZM625.45 224.12 682.19 224.12 680.29 106.51 718.01 224.12 781.41 224.12 781.41 2.22 724.35 2.22 726.57 114.12 690.43 2.22 625.45 2.22 625.45 224.12 625.45 224.12ZM522.43 147.41 535.11 67.53 547.47 147.41 522.43 147.41ZM510.38 224.12 515.45 192.74 554.44 192.74 559.2 224.12 621.65 224.12 576.95 2.22 497.07 2.22 452.69 224.12 510.38 224.12ZM448.57 218.73 448.57 157.23C441.6 164.52 432.72 168.64 420.36 168.64 397.22 168.64 381.37 149.3 381.37 113.8 381.37 78.3 397.22 58.96 419.41 58.96 432.72 58.96 440.97 64.03 448.57 71.96L448.57 7.61C438.74 2.54 426.38 0 413.38 0 356 0 318.28 40.89 318.28 113.17 318.28 185.45 355.37 226.34 411.8 226.34 425.43 226.34 438.43 224.44 448.57 218.73M310.35 220.95 310.35 171.81C304.64 177.2 298.94 179.73 290.38 179.73 276.12 179.73 265.34 168 265.34 148.66 265.34 128.37 276.12 116.64 290.38 116.64 299.26 116.64 304.96 119.81 310.35 125.83L310.35 72.89C304.64 69.4 294.5 67.5 285.62 67.5 242.51 67.5 211.76 96.35 211.76 147.7 211.76 199.05 241.87 226.32 284.35 226.32 293.86 226.32 303.05 224.73 310.34 220.93M0 224.12 56.74 224.12 55.79 94.15 83.05 224.12 119.82 224.12 147.08 94.15 146.13 224.12 204.14 224.12 204.14 2.22 123.3 2.22 102.38 115.71 82.1 2.22 0 2.22 0 224.12 0 224.12Z" class="MsftOfcThm_Background1_Fill_v2" stroke="none" stroke-width="1" stroke-linecap="butt" stroke-linejoin="miter" stroke-miterlimit="4" fill="#FFFFFF" fill-opacity="1"/></g></svg>